<?xml version="1.0" standalone="no"?>
<!DOCTYPE svg PUBLIC "-//W3C//DTD SVG 1.1//EN" "http://www.w3.org/Graphics/SVG/1.1/DTD/svg11.dtd">
<svg xmlns="http://www.w3.org/2000/svg" xmlns:xlink="http://www.w3.org/1999/xlink" id="Layer_2" data-name="Layer 2" viewBox="0 0 669.6 573.48" width="669.5999755859375" height="573.47998046875">
  <defs>
    <style>
      path:not([class]), polygon:not([class]) {
        fill: #f1f4ef;
      }

      .cls-1 {
        fill: url(#linear-gradient-2);
      }

      .cls-2 {
        fill: #f1f4ef;
        stroke: #f1f4ef;
        stroke-linecap: round;
        stroke-miterlimit: 10;
      }

      .cls-3 {
        fill: url(#linear-gradient-3);
      }

      .cls-4 {
        fill: url(#linear-gradient);
      }

      .cls-5 {
        fill: #f1f4ef;
      }
    </style>
    <linearGradient id="linear-gradient" x1="615.02" y1="153.9" x2="450.54" y2="375.31" gradientUnits="userSpaceOnUse">
      <stop offset=".11" stop-color="#9ece64"/>
      <stop offset=".13" stop-color="#99cb62"/>
      <stop offset=".24" stop-color="#76b759"/>
      <stop offset=".36" stop-color="#59a751"/>
      <stop offset=".49" stop-color="#439b4b"/>
      <stop offset=".63" stop-color="#339247"/>
      <stop offset=".78" stop-color="#298d44"/>
      <stop offset="1" stop-color="#278c44"/>
    </linearGradient>
    <linearGradient id="linear-gradient-2" x1="571.95" y1="4.71" x2="333.14" y2="326.19" gradientUnits="userSpaceOnUse">
      <stop offset=".09" stop-color="#6caf45"/>
      <stop offset=".19" stop-color="#66ac44"/>
      <stop offset=".31" stop-color="#57a444"/>
      <stop offset=".44" stop-color="#3e9844"/>
      <stop offset=".55" stop-color="#278c44"/>
    </linearGradient>
    <linearGradient id="linear-gradient-3" x1="119" y1="532.84" x2="192.48" y2="532.84" gradientUnits="userSpaceOnUse">
      <stop offset="0" stop-color="#6caf45"/>
      <stop offset=".04" stop-color="#67ac44"/>
      <stop offset=".28" stop-color="#4b9e44"/>
      <stop offset=".52" stop-color="#379444"/>
      <stop offset=".76" stop-color="#2b8e44"/>
      <stop offset="1" stop-color="#278c44"/>
    </linearGradient>
  </defs>
  <g id="Layer_1-2" data-name="Layer 1">
    <g>
      <path d="m83.67,94.59c33.22-.06,66.44-.13,99.66-.19,56.77,100.47,113.55,200.95,170.32,301.42-.25,17.24-.5,34.47-.75,51.71-21.93.09-43.86.19-65.78.28-67.82-117.74-135.63-235.48-203.45-353.22Z"/>
      <path class="cls-4" d="m515.24,127.81c-50.15,71.36-100.3,142.71-150.45,214.05.04,35.17.07,70.33.11,105.48,50.39-.26,100.78.45,151.17.16-.29-106.23-.57-213.46-.84-319.69Zm-64.68,306.16h-55.93v-91.21l55.93-43.93v135.14Z"/>
      <path class="cls-1" d="m556.54,43.07c-72.65,104.03-145.29,208.06-217.94,312.1-4.77-8.16-9.55-16.31-14.32-24.47,70.08-100.15,140.17-200.29,210.25-300.44-7.57.14-15.14.28-22.71.42,19.57-10.23,39.13-20.46,58.7-30.69.13,19.89.25,41.2.38,61.09l-14.36-18.02Z"/>
      <polygon class="cls-5" points="0 499.71 11.28 499.71 34.11 555.1 57.95 499.71 69.15 499.71 39.22 570.28 29.43 570.28 0 499.71"/>
      <polygon class="cls-3" points="155.74 516.02 183.05 570.28 192.48 570.28 156.58 495.4 119 570.28 129.84 570.28 155.74 516.02"/>
      <polygon class="cls-2" points="371.01 509.38 392.79 509.38 392.79 570.38 401.61 570.38 401.61 509.38 425.82 509.38 425.82 500.93 371.01 500.93 371.01 509.38"/>
      <path d="m256.17,552.52h10.78c.07.6.09,1.18.23,1.74,1.16,4.89,4.46,7.63,9.17,8.7,3.6.82,7.14.42,10.32-1.61,5.94-3.79,6.16-12.42.46-16.57-2.42-1.76-5.18-2.71-8.05-3.41-4.35-1.07-8.65-2.29-12.52-4.64-4.96-3.01-8.44-7.17-9.78-12.91-2.47-10.57,2.59-19.97,12.91-23.42,8.6-2.88,16.82-1.9,24.21,3.6,4.67,3.48,7.19,8.27,7.67,14.1.02.29.02.58.02.87,0,.1-.02.2-.04.34h-10.71c-.09-.62-.13-1.28-.29-1.91-1.24-4.87-4.59-7.56-9.31-8.57-3.43-.74-6.83-.37-9.9,1.48-6.17,3.7-6.52,12.46-.69,16.74,2.53,1.86,5.44,2.77,8.44,3.5,5,1.23,9.91,2.73,14.11,5.87,6.36,4.76,9.03,11.2,8.24,18.99-.78,7.66-5.23,12.81-12.2,15.55-8.92,3.51-17.56,2.63-25.38-3.15-4.81-3.56-7.33-8.5-7.67-14.5-.01-.23,0-.47,0-.79Z"/>
      <path d="m624.21,550.83h10.78c.07.6.09,1.18.23,1.74,1.16,4.89,4.46,7.63,9.17,8.7,3.6.82,7.14.42,10.32-1.61,5.94-3.79,6.16-12.42.46-16.57-2.42-1.76-5.18-2.71-8.05-3.41-4.35-1.07-8.65-2.29-12.52-4.64-4.96-3.01-8.44-7.17-9.78-12.91-2.47-10.57,2.59-19.97,12.91-23.42,8.6-2.88,16.82-1.9,24.21,3.6,4.67,3.48,7.19,8.27,7.67,14.1.02.29.02.58.02.87,0,.1-.02.2-.04.34h-10.71c-.09-.62-.13-1.28-.29-1.91-1.24-4.87-4.59-7.56-9.31-8.57-3.43-.74-6.83-.37-9.9,1.48-6.17,3.7-6.52,12.46-.69,16.74,2.53,1.86,5.44,2.77,8.44,3.5,5,1.23,9.91,2.73,14.11,5.87,6.36,4.76,9.03,11.2,8.24,18.99-.78,7.66-5.23,12.81-12.2,15.55-8.92,3.51-17.56,2.63-25.38-3.15-4.81-3.56-7.33-8.5-7.67-14.5-.01-.23,0-.47,0-.79Z"/>
      <path class="cls-2" d="m522.85,497.78c-20.78,0-37.61,16.83-37.61,37.6s16.83,37.6,37.61,37.6,37.6-16.83,37.6-37.6-16.83-37.6-37.6-37.6Zm.37,67.87c-16.4,0-29.7-13.3-29.7-29.7s13.3-29.69,29.7-29.69,29.69,13.29,29.69,29.69-13.29,29.7-29.69,29.7Z"/>
    </g>
  </g>
</svg>
